<svg width="699" height="427" viewBox="0 0 699 427" fill="none" xmlns="http://www.w3.org/2000/svg">
<g clip-path="url(#clip0_8_525)">
<path d="M171.119 77.9937C171.119 77.9937 201.471 204.396 213.919 256.273L188.309 234.307L208.86 263.654L173.606 278.817L211.719 274.322L204.986 305.9L219.51 279.271C229.262 319.869 231.675 329.842 231.675 329.842C231.675 329.842 129.94 312.068 155.349 205.756C155.349 205.756 74.0924 153.328 119.491 95.5658C119.491 95.5658 38.196 180.12 126.676 264.191C126.676 264.191 62.4816 228.13 75.6325 170.779C75.6325 170.779 46.9454 248.178 122.328 304.673C122.328 304.673 104.447 299.366 81.1807 266.904C81.1807 266.904 119.857 371.676 240.434 340.865L242.834 340.221C362.592 306.646 343.777 196.564 343.777 196.564C339.599 236.311 326.739 249.923 326.739 249.923C363.765 163.309 300.211 110.625 300.211 110.625C340.293 153.781 302.713 217.044 302.713 217.044C337.317 100.049 224.628 67.4382 224.628 67.4382C292.831 94.8282 248.663 180.775 248.663 180.775C323.821 260.129 244.606 326.399 244.606 326.399C244.606 326.399 241.719 316.553 229.856 276.521C233.083 278.482 255.749 292.32 255.749 292.32L234.129 268.34L269.403 253.17L231.27 257.671L234.395 221.98L223.198 253.809C208.121 202.749 171.464 79.0272 171.119 77.9937Z" fill="black"/>
</g>
<g clip-path="url(#clip1_8_525)">
<path fill-rule="evenodd" clip-rule="evenodd" d="M625.945 107.381C653.418 139.85 665.125 184.848 653.312 228.935C634.183 300.329 560.453 342.978 489.202 323.886C417.938 304.791 375.411 230.991 394.541 159.597C406.821 113.767 441.606 79.7932 483.806 66.3874C463.048 95.9904 437.881 111.551 437.385 148.846C436.964 180.322 455.168 206.131 477.881 206.29C497.401 206.426 514.069 187.57 518.635 162.299C523.134 137.39 512.115 120.1 498.486 98.3039L516.452 84.2298L535.068 118.077L533.535 78.2939L563.641 51.8844L574.875 88.8078L552.423 124.788L585.83 103.375L593.612 122.902C575.13 136.532 554.745 142.473 547.839 166.796C542.429 185.856 542.625 218.632 559.284 228.102C579.034 239.321 607.69 226.068 623.077 198.602C639.164 169.864 628.032 137.778 625.945 107.381Z" fill="black"/>
</g>
<defs>
<clipPath id="clip0_8_525">
<rect width="348" height="348" fill="white" transform="translate(0 90.069) rotate(-15)"/>
</clipPath>
<clipPath id="clip1_8_525">
<rect width="282" height="282" fill="white" transform="translate(425.987 15) rotate(15)"/>
</clipPath>
</defs>
</svg>
