<svg width="76" height="34" viewBox="0 0 76 34" fill="none" xmlns="http://www.w3.org/2000/svg">
<path fill-rule="evenodd" clip-rule="evenodd" d="M0.352844 10.4974V15.7476H15.7103C17.4953 15.7476 19.7759 14.097 19.7759 11.3665C19.7759 10.2683 20.196 9.55197 18.9052 8.09936L16.9409 5.77186C15.8153 4.72183 17.0753 4.72183 18.0208 4.72183H24.5048V15.7476H29.6471V4.72183H36.5777V0H14.1352C11.4047 0 10.0696 2.62176 10.1447 3.9868C10.2202 5.35184 10.4713 7.06925 12.7403 9.13238C14.8101 11.0137 11.7156 10.4974 11.4047 10.4974H0.352844ZM47.9484 0H39.6527L35.0022 15.748H40.1777L41.0173 13.5429H46.4775L47.288 15.748H52.3577L47.9484 0ZM42.1728 9.76239L43.9578 3.9868L45.6383 9.76239H42.1728ZM68.7394 10.4974C66.7443 10.4974 66.7443 9.76239 66.7443 9.76239C68.4539 9.76239 69.9696 7.27179 69.9696 4.72183C69.9696 2.17187 67.4794 0 65.4835 0H54.3228V15.748H59.9938V10.4978C59.9938 10.4978 62.4085 13.3329 63.6685 14.488C64.929 15.643 65.0336 15.748 66.7439 15.748H75.646V10.4978C75.6468 10.4974 70.7345 10.4974 68.7394 10.4974ZM63.5938 6.8223H59.9947V3.9868H63.5938C65.244 3.9868 65.5295 6.8223 63.5938 6.8223ZM0.352844 17.7426H6.15458L7.62463 22.9936L8.98967 17.7426H15.0803L16.6553 22.9936L18.2308 17.7426H23.2709L18.6504 33.4944H14.0302L12.0057 26.0383L9.72469 33.4944H4.99955L0.352844 17.7426ZM35.1778 17.8335H26.8821L22.2321 33.5811H27.4072L28.2472 31.3765H33.7078L34.5183 33.5811H39.5884L35.1778 17.8335ZM29.4026 27.5955L31.1877 21.8199L32.8677 27.5955H29.4026ZM68.844 22.4686C67.8998 22.4686 66.8701 22.579 67.9961 23.6286L69.9608 25.9565C71.2512 27.4092 71.2304 28.0147 71.2304 29.1137C71.2304 31.8438 68.5294 33.4944 66.7443 33.4944L54.3365 33.5778C52.627 33.5778 52.5224 33.4732 51.262 32.3182C50.0023 31.1631 47.5869 28.3276 47.5869 28.3276V33.5778H41.9167V17.8302H53.0773C55.0724 17.8302 57.5634 20.0025 57.5634 22.552C57.5634 25.1024 56.0477 27.5926 54.3374 27.5926C54.3374 27.5926 55.0894 28.3488 56.3494 28.3488C57.6099 28.3488 62.4616 28.3538 62.4616 28.3538C62.7721 28.3538 65.8661 28.8701 63.7968 26.9887C61.5278 24.9256 61.2767 23.209 61.2012 21.844C61.1256 20.4789 62.306 17.7431 65.0352 17.7431H75.6476V22.469L68.844 22.4686ZM51.1864 24.6521H47.5864V21.8166H51.1864C52.837 21.8166 53.1221 24.6521 51.1864 24.6521Z" fill="black"/>
</svg>
